<svg width="41" height="40" viewBox="0 0 41 40" fill="none" xmlns="http://www.w3.org/2000/svg">
<circle cx="20.7871" cy="20" r="20" fill="#C5C5C5"/>
<path d="M26.084 19.0156H27.7715C27.7715 20.7031 27.1777 22.1875 25.9902 23.4688C24.834 24.7188 23.4277 25.4688 21.7715 25.7188V29H19.8027V25.7188C18.1465 25.4688 16.7246 24.7188 15.5371 23.4688C14.3809 22.1875 13.8027 20.7031 13.8027 19.0156H15.4902C15.4902 20.4844 16.0059 21.7031 17.0371 22.6719C18.0996 23.6094 19.3496 24.0781 20.7871 24.0781C22.2246 24.0781 23.459 23.6094 24.4902 22.6719C25.5527 21.7031 26.084 20.4844 26.084 19.0156ZM22.8965 21.125C22.3027 21.7188 21.5996 22.0156 20.7871 22.0156C19.9746 22.0156 19.2715 21.7188 18.6777 21.125C18.084 20.5312 17.7871 19.8281 17.7871 19.0156V13.0156C17.7871 12.2031 18.084 11.5 18.6777 10.9062C19.2715 10.3125 19.9746 10.0156 20.7871 10.0156C21.5996 10.0156 22.3027 10.3125 22.8965 10.9062C23.4902 11.5 23.7871 12.2031 23.7871 13.0156V19.0156C23.7871 19.8281 23.4902 20.5312 22.8965 21.125Z" fill="#01080E"/>
</svg>
