<?xml version="1.0" encoding="UTF-8"?>
<!DOCTYPE svg PUBLIC "-//W3C//DTD SVG 1.1//EN" "http://www.w3.org/Graphics/SVG/1.1/DTD/svg11.dtd">
<!-- Creator: CorelDRAW 2020 (64 Bit) -->
<svg xmlns="http://www.w3.org/2000/svg" xml:space="preserve" width="20.1218mm" height="14.2151mm" version="1.1" style="shape-rendering:geometricPrecision; text-rendering:geometricPrecision; image-rendering:optimizeQuality; fill-rule:evenodd; clip-rule:evenodd"
viewBox="0 0 1681.47 1187.88"
 xmlns:xlink="http://www.w3.org/1999/xlink"
 xmlns:xodm="http://www.corel.com/coreldraw/odm/2003">
 <defs>
  <style type="text/css">
   <![CDATA[
    .fil0 {fill:#FE0002}
   ]]>
  </style>
 </defs>
 <g id="Camada_x0020_1">
  <metadata id="CorelCorpID_0Corel-Layer"/>
  <path class="fil0" d="M274.58 26.51c378.85,-36.36 760.64,-34.34 1144.94,0 133.23,7.99 217.75,63.24 240.35,219.95 28.37,230.67 28.86,461.12 1.01,699.95 -17.06,137.8 -95.57,205.1 -241.36,219.61 -365.72,25.5 -742.95,32.55 -1144.94,0 -152.62,-2.35 -235.38,-77.42 -255.65,-217.57 -24.58,-238.38 -25.9,-473.36 0,-704.37 17.99,-143.1 104.97,-213.77 255.65,-217.57zm390.3 314.58l443.29 254.29 -443.29 250.2 0 -504.49z"/>
 </g>
</svg>
