<?xml version="1.0" encoding="UTF-8"?>
<!DOCTYPE svg PUBLIC "-//W3C//DTD SVG 1.1//EN" "http://www.w3.org/Graphics/SVG/1.1/DTD/svg11.dtd">
<!-- Creator: CorelDRAW 2020 (64 Bit) -->
<svg xmlns="http://www.w3.org/2000/svg" xml:space="preserve" width="68.0289mm" height="12.0293mm" version="1.1" style="shape-rendering:geometricPrecision; text-rendering:geometricPrecision; image-rendering:optimizeQuality; fill-rule:evenodd; clip-rule:evenodd"
viewBox="0 0 6788.63 1200.41"
 xmlns:xlink="http://www.w3.org/1999/xlink"
 xmlns:xodm="http://www.corel.com/coreldraw/odm/2003">
 <defs>
  <style type="text/css">
   <![CDATA[
    .fil0 {fill:#FE0002}
    .fil1 {fill:#373435;fill-rule:nonzero}
   ]]>
  </style>
 </defs>
 <g id="Camada_x0020_1">
  <metadata id="CorelCorpID_0Corel-Layer"/>
  <g id="_1920332432256">
   <path class="fil0" d="M277.48 26.79c382.85,-36.74 768.69,-34.71 1157.03,0 134.64,8.08 220.06,63.92 242.89,222.27 28.66,233.11 29.16,465.99 1.03,707.34 -17.24,139.25 -96.59,207.26 -243.92,221.92 -369.57,25.76 -750.79,32.89 -1157.03,0 -154.23,-2.38 -237.86,-78.25 -258.34,-219.87 -24.84,-240.89 -26.18,-478.36 0,-711.8 18.17,-144.62 106.07,-216.04 258.34,-219.87zm394.42 317.9l447.98 256.97 -447.98 252.84 0 -509.81z"/>
   <path class="fil1" d="M2302.54 1124.02l-208.03 -892.9 0 892.9 -142.72 0 0 -1065.29 243.11 0 208.02 892.9 0 -892.9 142.71 0 0 1065.29 -243.09 0zm656.75 0l-2.41 -83.98c-33.87,65.81 -84.66,98.72 -152.39,98.72 -28.22,0 -51.8,-5.9 -70.75,-17.68 -18.95,-11.8 -34.27,-27.75 -45.96,-47.89 -11.7,-20.14 -20.16,-43.71 -25.4,-70.72 -5.24,-27.01 -7.86,-55.75 -7.86,-86.2 0,-59.92 7.86,-107.31 23.59,-142.19 15.72,-34.87 36.88,-60.9 63.49,-78.09 26.61,-17.19 57.86,-28 93.73,-32.42 35.88,-4.42 73.98,-6.63 114.3,-6.63l0 -38.31c0,-17.68 -0.41,-34.87 -1.22,-51.57 -0.8,-16.69 -3.22,-31.67 -7.25,-44.94 -4.03,-13.26 -10.28,-24.07 -18.75,-32.42 -8.46,-8.34 -20.35,-12.52 -35.67,-12.52 -25.81,0 -43.75,9.58 -53.83,28.74 -10.08,19.15 -15.12,42.48 -15.12,69.98l0 11.79 -147.55 0 0 -13.26c0,-42.23 6.25,-76.86 18.74,-103.87 12.5,-27.01 29.23,-48.38 50.19,-64.1 20.97,-15.72 44.75,-26.76 71.36,-33.15 26.6,-6.39 54.43,-9.58 83.45,-9.58 37.89,0 69.54,4.91 94.93,14.74 25.41,9.82 45.96,25.05 61.69,45.67 15.72,20.63 27,46.9 33.86,78.82 6.86,31.92 10.29,69.99 10.29,114.19l0 259.33c0,41.26 0.6,82.52 1.81,123.77 1.21,41.25 3.83,82.52 7.86,123.77l-145.14 0zm-9.67 -358.05l-26.61 0c-40.32,0 -70.15,10.32 -89.49,30.94 -19.36,20.63 -29.03,55.99 -29.03,106.09 0,13.75 0.81,27.5 2.42,41.25 1.6,13.75 4.83,26.04 9.67,36.84 4.83,10.8 11.29,19.89 19.35,27.25 8.06,7.37 18.94,11.06 32.65,11.06 17.74,0 31.85,-5.9 42.33,-17.68 10.48,-11.79 18.55,-26.27 24.19,-43.47 5.65,-17.19 9.47,-35.61 11.49,-55.25 2.03,-19.65 3.03,-37.32 3.03,-53.04l0 -83.99zm567.26 358.05l0 -498.02c0,-18.66 -0.4,-36.58 -1.21,-53.78 -0.81,-17.19 -3.42,-32.41 -7.86,-45.67 -4.43,-13.26 -11.29,-23.82 -20.56,-31.68 -9.28,-7.85 -22.37,-11.79 -39.31,-11.79 -14.51,0 -27.01,4.42 -37.5,13.26 -10.47,8.84 -19.14,20.63 -26,35.36 -6.86,14.74 -12.09,31.43 -15.73,50.1 -3.63,18.66 -5.44,37.81 -5.44,57.46l0 484.76 -149.97 0 0 -621.79c0,-20.63 -0.2,-41 -0.6,-61.14 -0.41,-20.14 -1.82,-40.03 -4.24,-59.67l151.18 0 1.22 82.51c16.12,-28.48 36.08,-52.3 59.86,-71.46 23.78,-19.15 53.82,-28.73 90.11,-28.73 30.63,0 56.03,4.91 76.19,14.74 20.16,9.82 36.08,24.31 47.77,43.46 11.69,19.16 19.96,42.73 24.8,70.73 4.83,27.99 7.25,60.65 7.25,97.98l0 533.38 -149.97 0zm568.48 0l-1.21 -79.56c-33.06,62.87 -80.64,94.3 -142.72,94.3 -40.32,0 -72.16,-10.81 -95.55,-32.42 -23.37,-21.6 -41.11,-50.09 -53.21,-85.46 -12.09,-35.36 -19.76,-75.88 -22.98,-121.55 -3.23,-45.67 -4.84,-92.59 -4.84,-140.71 0,-54.03 1.61,-105.11 4.84,-153.24 3.22,-48.13 10.68,-90.12 22.37,-125.98 11.7,-35.85 28.62,-64.1 50.79,-84.72 22.17,-20.63 52.21,-30.94 90.11,-30.94 30.64,0 57.45,6.63 80.42,20.14 22.99,13.5 43.75,36.09 62.29,67.78l0 -392.91 149.97 0 0 929.74c0,1.97 0.2,9.82 0.6,23.57 0.41,13.75 0.82,28.49 1.22,44.21 0.4,15.72 0.8,30.45 1.21,44.21 0.41,13.75 0.6,21.6 0.6,23.57l-143.92 0zm-8.47 -361.73c0,-33.4 -0.6,-66.55 -1.81,-99.95 -1.21,-33.39 -4.64,-63.11 -10.29,-89.63 -5.84,-26.52 -14.1,-47.89 -24.99,-64.58 -11.1,-16.69 -26.2,-25.05 -45.76,-25.05 -17.93,0 -32.04,7.13 -42.73,21.37 -10.48,14.24 -18.34,33.64 -23.79,58.69 -5.24,25.06 -8.66,54.53 -10.28,88.9 -1.61,34.38 -2.42,71.46 -2.42,111.74 0,27.5 0.82,56.23 2.42,86.69 1.62,30.45 5.04,58.2 10.28,83.73 5.45,25.55 13.31,46.41 23.79,63.12 10.69,16.69 25.2,25.05 43.94,25.05 19.55,0 34.48,-7.86 45.16,-23.58 10.48,-15.71 18.55,-35.84 24.39,-60.89 5.65,-25.06 9.08,-53.05 10.29,-83.74 1.21,-30.94 1.81,-61.39 1.81,-91.85zm714.82 -31.67c0,60.9 -2.22,116.64 -6.66,167.23 -4.43,50.59 -14.51,93.81 -30.24,129.67 -15.72,35.85 -38.9,63.85 -69.54,83.98 -30.64,20.14 -72.56,30.21 -125.78,30.21 -54.82,0 -97.76,-9.58 -128.81,-28.73 -31.04,-19.16 -54.43,-45.92 -70.15,-80.3 -15.72,-34.39 -25.6,-75.15 -29.63,-122.3 -4.02,-47.15 -6.04,-99.21 -6.04,-156.18 0,-52.06 2.41,-101.67 7.24,-148.82 4.84,-47.15 15.53,-88.65 32.05,-124.51 16.53,-35.84 40.52,-64.33 71.97,-85.45 31.44,-21.13 73.77,-31.68 126.98,-31.68 52.41,0 93.94,8.84 124.58,26.52 30.64,17.68 53.62,42.73 68.95,75.14 15.32,32.41 24.99,71.22 29.02,116.41 4.03,45.19 6.05,94.79 6.05,148.82zm-152.39 -51.57c0,-23.58 -0.41,-47.15 -1.21,-70.73 -0.81,-23.57 -3.63,-44.69 -8.47,-63.36 -5.04,-18.66 -12.9,-33.64 -23.78,-44.94 -11.09,-11.3 -26.2,-16.94 -45.76,-16.94 -21.17,0 -37.49,6.88 -49.38,20.63 -11.7,13.75 -20.17,30.7 -25.61,50.83 -5.24,20.14 -8.26,41.75 -9.07,64.83 -0.8,23.08 -1.22,43.96 -1.22,62.62l0 147.34c0,18.67 0.21,39.3 0.61,61.89 0.41,22.59 3.23,43.47 8.47,62.62 5.44,19.16 13.7,35.37 24.99,48.63 11.5,13.26 28.02,19.89 49.99,19.89 20.37,0 35.88,-6.14 46.97,-18.42 10.88,-12.27 18.74,-27.5 23.78,-45.67 4.84,-18.17 7.66,-38.06 8.47,-59.67 0.8,-21.6 1.21,-41.74 1.21,-60.41l0 -159.13zm434.23 -472.98l0 917.95 -162.07 0 0 -917.95 -201.98 0 0 -147.34 566.02 0 0 147.34 -201.98 0zm459.62 917.95l-1.22 -80.79c-33.86,63.6 -82.24,95.53 -145.13,95.53 -55.64,0 -95.96,-17.19 -120.95,-51.57 -25,-34.39 -37.5,-86.94 -37.5,-157.66l0 -548.12 149.97 0 0 495.32c0,15.72 0.4,31.92 1.21,48.62 0.81,16.7 3.42,32.17 7.86,46.17 4.43,14.24 11.49,25.79 21.17,34.63 9.68,8.84 22.98,13.26 39.91,13.26 16.14,0 29.64,-5.16 40.51,-15.48 10.89,-10.31 19.36,-23.33 25.41,-38.8 6.05,-15.72 10.28,-32.66 12.7,-50.83 2.41,-18.17 3.62,-35.61 3.62,-52.31l0 -480.58 149.96 0 0 620.32c0,23.57 0.41,44.45 1.22,62.62 0.81,18.17 2.02,38.06 3.62,59.67l-152.38 0zm730.54 -374.25c0,49.12 -1.82,97.01 -5.44,143.66 -3.63,46.66 -11.5,88.16 -23.39,124.51 -12.09,36.34 -29.83,65.57 -53.01,87.67 -23.39,22.1 -55.03,33.16 -95.35,33.16 -35.28,0 -63.5,-7.37 -84.86,-22.1 -21.37,-14.74 -39.92,-39.3 -56.04,-73.68l-1.2 81.04 -143.93 0c0,-1.97 0.2,-10.07 0.6,-24.31 0.41,-14.25 0.81,-29.47 1.21,-45.68 0.41,-16.21 0.81,-31.42 1.22,-45.67 0.4,-14.24 0.6,-22.34 0.6,-24.31l0 -925.32 149.97 0 0 392.91c18.54,-30.7 40.12,-53.04 65.11,-67.04 24.79,-14 52.6,-20.88 83.04,-20.88 39.32,0 69.95,10.07 91.53,30.21 21.76,20.14 37.89,47.39 48.17,81.78 10.49,34.38 16.73,75.14 18.75,122.29 2.02,47.15 3.02,97.73 3.02,151.76zm-149.97 -9.58c0,-33.39 -0.61,-65.32 -1.81,-96.26 -1.22,-30.7 -4.24,-58.21 -9.08,-82.27 -4.83,-24.07 -12.29,-42.98 -22.37,-57.22 -10.08,-14.24 -24.39,-21.37 -42.93,-21.37 -19.36,0 -34.88,7.61 -46.57,22.84 -11.69,15.22 -20.36,35.12 -26,60.16 -5.65,25.05 -9.27,53.29 -10.89,85.21 -1.62,31.92 -2.41,64.83 -2.41,99.21 0,34.38 0.8,67.53 2.41,99.95 1.62,32.41 5.04,61.14 10.28,86.69 5.24,25.54 13.51,45.92 24.8,61.63 11.29,15.72 26.6,23.58 45.95,23.58 16.93,0 30.64,-7.61 41.12,-22.84 10.48,-15.22 18.54,-35.36 24.19,-60.9 5.65,-25.54 9.27,-55.25 10.89,-89.63 1.62,-34.38 2.41,-70.48 2.41,-108.79zm377.38 33.16l0 66.3c0,63.85 5.65,110.26 16.73,139.24 11.29,28.98 31.23,43.47 60.06,43.47 15.93,0 28.83,-4.17 38.3,-12.52 9.68,-8.35 17.33,-19.4 22.98,-33.15 5.44,-13.75 9.07,-29.23 10.69,-46.41 1.62,-17.19 2.41,-34.63 2.41,-52.31l142.71 0c-3.22,92.34 -21.76,159.38 -55.63,201.13 -33.86,41.74 -87.88,62.62 -162.06,62.62 -53.22,0 -94.94,-10.07 -125.18,-30.21 -30.25,-20.14 -52.82,-47.64 -67.73,-82.52 -14.92,-34.87 -24.19,-75.39 -27.82,-121.55 -3.63,-46.16 -5.44,-95.28 -5.44,-147.34 0,-51.08 2.41,-100.44 7.24,-148.08 4.84,-47.65 15.33,-89.88 31.45,-126.72 16.13,-36.83 39.71,-66.3 70.75,-88.4 31.04,-22.1 72.77,-33.15 125.18,-33.15 53.22,0 94.14,11.3 122.76,33.89 28.62,22.59 49.59,52.8 62.89,90.62 13.3,37.81 21.17,81.28 23.58,130.4 2.42,49.12 3.63,100.69 3.63,154.72l-297.53 0zm149.96 -101.67c0,-16.7 0,-33.4 0,-50.1 0,-16.69 -1.2,-33.89 -3.62,-51.57 -3.22,-25.54 -9.47,-46.41 -18.55,-62.62 -9.27,-16.21 -25.39,-24.31 -48.57,-24.31 -23.99,0 -41.32,8.84 -52.21,26.52 -10.68,17.68 -18.14,41.25 -22.17,70.72 -1.62,14.74 -2.81,29.22 -3.63,43.47 -0.8,14.24 -1.21,30.21 -1.21,47.89l149.96 0z"/>
  </g>
 </g>
</svg>
